/* XPM */
static char *_587529194457[] = {
/* columns rows colors chars-per-pixel */
"16 16 81 1 ",
"  c #47484B",
". c #49494B",
"X c #49494D",
"o c #4A4B4D",
"O c #4D4D4F",
"+ c #4E4E51",
"@ c #535251",
"# c #515153",
"$ c #535355",
"% c #6B6555",
"& c #6E6755",
"* c #6F6853",
"= c #6F6955",
"- c #61605B",
"; c #716A53",
": c #736B53",
"> c #776F54",
", c #797053",
"< c #5F5F61",
"1 c #626264",
"2 c #6A6A6C",
"3 c #6C6C6E",
"4 c #6E6E70",
"5 c #727273",
"6 c #777571",
"7 c #817653",
"8 c #887C56",
"9 c #8B7E58",
"0 c #FFCE2C",
"q c #FFD02F",
"w c #EFC438",
"e c #F2C636",
"r c #F5C835",
"t c #F8CA33",
"y c #F0C63B",
"u c #FFD032",
"i c #FFD135",
"p c #FFD23B",
"a c #FFD33E",
"s c #8A805E",
"d c #94865C",
"f c #AC954D",
"g c #B79D4A",
"h c #A79459",
"j c #A6955C",
"k c #BDA149",
"l c #C6A847",
"z c #C8A947",
"x c #CEAD44",
"c c #CFAF47",
"v c #C1A548",
"b c #CAAB49",
"n c #C5AE65",
"m c #C8AF60",
"M c #FFD240",
"N c #FFD440",
"B c #FFD347",
"V c #FFD447",
"C c #FFD54A",
"Z c #FFD54D",
"A c #E2C051",
"S c #E6C350",
"D c #E6C969",
"F c #848486",
"G c #8B8B8D",
"H c #8F8F91",
"J c #96979A",
"K c #9A9A9E",
"L c #9D9D9E",
"P c #AEAEAF",
"I c #B3B3B4",
"U c #B7B7B8",
"Y c #BCBCBD",
"T c #C5C5C6",
"R c LightGray",
"E c #D8D8D8",
"W c #E7E7E7",
"Q c #EAEAEA",
"! c #ECECEC",
"~ c gray94",
"^ c None",
/* pixels */
"^^^^^^^^^^^^^^^^",
"^^^^^^^^^^^^^^^^",
"^^^^^^^^^^^^^^^^",
"^^^^Dmh89jn^^^^^",
"^^Sd=6HKJF-%sA^^",
"^afX 4!TPW5 Xfp^",
"^y*XX3~IGEY$X;y^",
"avO.1UQRYEP#.+zN",
"0b=O+<5LL2O O;cq",
"Biwg:OXoXX#,kypZ",
"^^Vuek>+#7lriZ^^",
"^^^^VurlxtiC^^^^",
"^^^^^^MquV^^^^^^",
"^^^^^^^^^^^^^^^^",
"^^^^^^^^^^^^^^^^",
"^^^^^^^^^^^^^^^^"
};
