/* XPM */
static char *_587529209650[] = {
/* columns rows colors chars-per-pixel */
"64 64 154 2 ",
"   c #212123",
".  c #2C2C2E",
"X  c #2F303A",
"o  c #353537",
"O  c #363639",
"+  c #3C3C3E",
"@  c #343640",
"#  c #3C3D42",
"$  c #35394B",
"%  c #3C3E4A",
"&  c #3E414E",
"*  c #3F4250",
"=  c #434345",
"-  c #464648",
";  c #484749",
":  c #4B4B4D",
">  c #424554",
",  c #444857",
"<  c #4E4E50",
"1  c #474C5C",
"2  c #484C5D",
"3  c #525254",
"4  c #565659",
"5  c #5A5A5B",
"6  c #4D5162",
"7  c #505566",
"8  c #5F5F61",
"9  c #545A6B",
"0  c #595D6E",
"q  c #5A5F70",
"w  c #5D6172",
"e  c #59617F",
"r  c #636364",
"t  c #6B6B6C",
"y  c #616677",
"u  c #636877",
"i  c #696E7B",
"p  c #6D727E",
"a  c #737375",
"s  c #74767B",
"d  c #7B7B7D",
"f  c #FFCC15",
"g  c #FFCA1C",
"h  c #FFD11D",
"j  c #FFCB23",
"k  c #FFCC29",
"l  c #FFD322",
"z  c #FFD629",
"x  c #FFD92F",
"c  c #FFCE34",
"v  c #FFD332",
"b  c #FFDB34",
"n  c #FFD13B",
"m  c #FFDC3C",
"M  c #FFD242",
"N  c #FFDE43",
"B  c #FFD44B",
"V  c #FFDC4C",
"C  c #FFD653",
"Z  c #FFDE53",
"A  c #FFD758",
"S  c #FFD95D",
"D  c #FFE14D",
"F  c #FFE253",
"G  c #FFE25C",
"H  c #FFDA64",
"J  c #FEDC6C",
"K  c #E6CF7D",
"L  c #EDD47D",
"P  c #F2D676",
"I  c #FFDE75",
"U  c #FADE7C",
"Y  c #FFE265",
"T  c #FFE16B",
"R  c #FEE173",
"E  c #FFE07C",
"W  c #6C748D",
"Q  c #747780",
"!  c #7B7E86",
"~  c #7E8186",
"^  c #7F8288",
"/  c #828284",
"(  c #838589",
")  c #878A8D",
"_  c #8A8B8C",
"`  c #95948E",
"'  c #9B988E",
"]  c #878B96",
"[  c #8F8F91",
"{  c #929293",
"}  c #9C9B93",
"|  c #9C9C9D",
" . c #A29F99",
".. c #A5A295",
"X. c #ACA694",
"o. c #A9A699",
"O. c #B3AC94",
"+. c #B3AD98",
"@. c #B7B097",
"#. c #BFB691",
"$. c #B4B098",
"%. c #BCB79A",
"&. c #BFB998",
"*. c #A4A4A5",
"=. c #A7A7A8",
"-. c #AAAAAB",
";. c #AFAFB0",
":. c #B2B3B2",
">. c #BBBBBC",
",. c #CCBE8E",
"<. c #C0B691",
"1. c #C4BA92",
"2. c #C0B999",
"3. c #D3C48D",
"4. c #DACA8D",
"5. c #CCC295",
"6. c #D2C494",
"7. c #D8C794",
"8. c #D6C997",
"9. c #DACC92",
"0. c #E3CE87",
"q. c #E2CF8D",
"w. c #E7D486",
"e. c #E9D485",
"r. c #E5D28B",
"t. c #E8D58A",
"y. c #F0D784",
"u. c #F2DA82",
"i. c #FFE284",
"p. c #FEE48B",
"a. c #FEE594",
"s. c #FFE79A",
"d. c #FEE89F",
"f. c #FEE9A3",
"g. c #FEEBAB",
"h. c #FFEDB3",
"j. c #FEEFBA",
"k. c #C3C3C3",
"l. c #CCCCCD",
"z. c #CFCFD0",
"x. c #D4D4D5",
"c. c gainsboro",
"v. c #FEF1C5",
"b. c #FEF3CC",
"n. c #FEF5D3",
"m. c #FEF6D8",
"M. c #DFDFE0",
"N. c gray90",
"B. c gray93",
"V. c #FEFBEC",
"C. c #EFEFF0",
"Z. c #F4F4F4",
"A. c #FEFEFE",
"S. c None",
/* pixels */
"S.S.S.S.S.S.S.S.S.S.S.S.S.S.S.S.S.S.S.S.S.S.S.S.S.S.S.S.S.S.S.S.S.S.S.S.S.S.S.S.S.S.S.S.S.S.S.S.S.S.S.S.S.S.S.S.S.S.S.S.S.S.S.S.",
"S.S.S.S.S.S.S.S.S.S.S.S.S.S.S.S.S.S.S.S.S.S.S.S.S.S.S.S.S.S.S.S.S.S.S.S.S.S.S.S.S.S.S.S.S.S.S.S.S.S.S.S.S.S.S.S.S.S.S.S.S.S.S.S.",
"S.S.S.S.S.S.S.S.S.S.S.S.S.S.S.S.S.S.S.S.S.S.S.S.S.S.S.S.S.S.S.S.S.S.S.S.S.S.S.S.S.S.S.S.S.S.S.S.S.S.S.S.S.S.S.S.S.S.S.S.S.S.S.S.",
"S.S.S.S.S.S.S.S.S.S.S.S.S.S.S.S.S.S.S.S.S.S.S.S.S.S.S.S.S.S.S.S.S.S.S.S.S.S.S.S.S.S.S.S.S.S.S.S.S.S.S.S.S.S.S.S.S.S.S.S.S.S.S.S.",
"S.S.S.S.S.S.S.S.S.S.S.S.S.S.S.S.S.S.S.S.S.S.S.S.S.S.S.S.S.S.S.S.S.S.S.S.S.S.S.S.S.S.S.S.S.S.S.S.S.S.S.S.S.S.S.S.S.S.S.S.S.S.S.S.",
"S.S.S.S.S.S.S.S.S.S.S.S.S.S.S.S.S.S.S.S.S.S.S.S.S.S.S.S.S.S.S.S.S.S.S.S.S.S.S.S.S.S.S.S.S.S.S.S.S.S.S.S.S.S.S.S.S.S.S.S.S.S.S.S.",
"S.S.S.S.S.S.S.S.S.S.S.S.S.S.S.S.S.S.S.S.S.S.S.S.S.S.S.S.S.S.S.S.S.S.S.S.S.S.S.S.S.S.S.S.S.S.S.S.S.S.S.S.S.S.S.S.S.S.S.S.S.S.S.S.",
"S.S.S.S.S.S.S.S.S.S.S.S.S.S.S.S.S.S.S.S.S.S.S.S.S.S.S.S.S.S.S.S.S.S.S.S.S.S.S.S.S.S.S.S.S.S.S.S.S.S.S.S.S.S.S.S.S.S.S.S.S.S.S.S.",
"S.S.S.S.S.S.S.S.S.S.S.S.S.S.S.S.S.S.S.S.S.S.S.S.S.S.S.S.S.S.S.S.S.S.S.S.S.S.S.S.S.S.S.S.S.S.S.S.S.S.S.S.S.S.S.S.S.S.S.S.S.S.S.S.",
"S.S.S.S.S.S.S.S.S.S.S.S.S.S.S.S.S.S.S.S.S.S.S.S.S.S.S.S.S.S.S.V.S.S.S.S.S.S.S.S.S.S.S.S.S.S.S.S.S.S.S.S.S.S.S.S.S.S.S.S.S.S.S.S.",
"S.S.S.S.S.S.S.S.S.S.S.S.S.S.S.S.S.S.S.S.S.S.S.S.S.S.S.S.v.a.J n C E g.S.S.S.S.S.S.S.S.S.S.S.S.S.S.S.S.S.S.S.S.S.S.S.S.S.S.S.S.S.",
"S.S.S.S.S.S.S.S.S.S.S.S.S.S.S.S.S.S.S.S.S.S.S.S.S.g.U B z f h D D l g v A i.h.S.S.S.S.S.S.S.S.S.S.S.S.S.S.S.S.S.S.S.S.S.S.S.S.S.",
"S.S.S.S.S.S.S.S.S.S.S.S.S.S.S.S.S.S.S.S.S.j.i.S c f h m J 0.@.( / O.4.J N z l v S i.h.S.S.S.S.S.S.S.S.S.S.S.S.S.S.S.S.S.S.S.S.S.",
"S.S.S.S.S.S.S.S.S.S.S.S.S.S.S.S.S.b.s.J n h h b H e.#.[ u , # + & # , q ~ X.3.P D x z n S p.j.S.S.S.S.S.S.S.S.S.S.S.S.S.S.S.S.S.",
"S.S.S.S.S.S.S.S.S.S.S.S.S.S.g.i.C z h x Z e.1.` i 2 & + = : : : ; : ; - + # * 9 Q } ,.P Z m x n S a.v.S.S.S.S.S.S.S.S.S.S.S.S.S.",
"S.S.S.S.S.S.S.S.S.S.b.a.H n h z V P 6...Q 7 & + = : : : : - = : : - - ; : : : ; = # & 7 s ' <.L S m m V J f.m.S.S.S.S.S.S.S.S.S.",
"S.S.S.S.S.S.S.h.i.A c g N J 4.X.~ 0 > # & ; - - : - - - = 8 t 3 = 5 r 3 = - : : : : : : = # & 6 i ` <.K H z n S u.h.S.S.S.S.S.S.",
"S.S.S.S.S.S.p.j g g g y.] w , # # ; : : ; : 5 5 5 5 5 5 4 N.A.| - x.A.-.: 4 : + = : : : : : : ; = # % 2 W y.f j g j I S.S.S.S.S.",
"S.S.S.S.S.S.n j k j N  .X = : : : : : : ; 4 Z.A.A.Z.Z.A.A.A.A.A.A.A.A.A.A.Z.N.>.t = : : : : : : : : : : @ +.b j k j k v.S.S.S.S.",
"S.S.S.S.S.p.g k k g u.0 - : : : : : : : - 8 Z.C.Z.A.A.A.A.A.Z.B.B.B.B.A.A.A.A.A.A./ + : : : : : : : : : = i T g k k g U S.S.S.S.",
"S.S.S.S.S.B j k j b +.% : : : : : : : : ; : 4 = | A.A.A.A.A.r : < : : a C.A.A.A.A.x.+ : : : : : : : : : : - 6.l k k j M S.S.S.S.",
"S.S.S.S.s.g k k g T i = : : : : : : : : : : ; O ;.A.A.A.A.Z.- o + # + . l.A.A.A.A.| = : : : : : : : : : : $ ) F j k k g a.S.S.S.",
"S.S.S.S.C g k k z 6.> : : : : : : : : : : : : = k.A.A.A.A.Z.) / / d a -.A.A.A.N.{ + : : : : : : : : : : : ; 6 e.f k k j S S.S.S.",
"S.S.S.f.j k k j F ( + : : : : : : : : : : : ; - c.A.A.A.A.A.A.A.A.A.A.A.A.A.A.-.t 4 + - : : : : : : : : : : # +.b j k k k j.S.S.",
"S.S.S.A g k k g t.1 ; : : : : : : : : : : : ; 3 B.A.A.A.A.Z.l.x.x.c.M.N.Z.A.A.A.A.Z.>.4 = : : : : : : : : : & i T g k k g R S.S.",
"S.S.g.j k k j N } # : : : : : : : : : : : : - r A.A.A.A.A.x.o = = - = ; 3 k.A.A.A.A.A.N.4 - : : : : : : : : : * 6.l k k j M S.S.",
"S.S.S g k k g U 9 ; : : : : : : : : : : : : = s A.A.A.A.A.z.# : : : : : + 3 A.A.A.A.A.A.*.+ : : : : : : : : : # _ V j j k j a.S.",
"S.h.k k k j x +.$ : : : : : : : : : : - + + . ( A.A.A.A.A.k.. + + + + + O [ A.A.A.A.A.A.*.+ : : : : : : : : : ; 7 y.g k k g S S.",
"S.J g k k g Y p = : : : : : : : : : = a -.;.-.x.A.A.A.A.A.N.-.-.-.=.*.*.l.A.A.A.A.A.A.Z.5 ; : : : : : : : : : : $ +.b j k j k v.",
"v.c j k k l 6.> : : : : : : : : : : + :.A.A.A.A.A.A.A.A.A.A.A.A.A.A.A.A.A.A.A.A.A.A.B.a = : : : : : : : : : : : = p T g k k g U ",
"I g k k g F ) # : : : : : : : : : : + k.A.A.A.A.A.A.A.A.A.A.A.A.A.A.A.A.A.A.A.A.c.| 3 # : : : : : : : : : : : : : - 7.l k k j M ",
"n j k k g 0.2 : : : : : : : : : : : : t d d / / ( _ ` { C.A.A.-./ x.A.A.k./ d r - + ; : : : : : : : : : : : : : : # _ V j k j j ",
"g k k j N :.$ # : : : : : : : : : : : = = + = # # + + = Z.A.A.t   :.A.A.{ . # - : : : : : : : : : : : : : : : < = # e a.g k k g ",
"j k k k k S 6.! > + : : : : : : : : : : : : : : : : = 8 Z.Z.Z.t O :.Z.Z.| + : : : : : : : : : < : : : : : : = # 9 } w.M j k k k ",
"k k k k k g l G 8.^ , # : : : : : : : : : : : : : : : : 5 4 4 : : 3 4 4 3 : : : : : : : : : : : : : : : = # w o.y.D f j k k k k ",
"g j k k k k k g l G 9.) 1 # ; < : : : : : : : : : : : : - ; ; : : : - - : : : : : : : : : : : : : : & % y +.U m g j j k k k j g ",
"J k g k k k k k k g l F r.{ 6 @ ; : : : : : : : : : : : : : : : : : : : : : : : : : : : : : : : + & p 2.R b g j k k k k k g k J ",
"S.h.H j g k k k k k k g g N w.} 7 # - : : : : : : : : : : : : : : : : : : : : : : : : : : ; # , ! 5.Y z g j k k k k k g k J j.S.",
"S.S.S.g.H j g j k k k k k j g N u...q # = : : : : : : : : : : : : : : : : : : : : : : ; # 6 _ 9.F z g k k k k k k g k H j.S.S.S.",
"S.S.S.S.S.g.S j j k k k k k k j g m U $.u % = : : : : : : : : : : : : : : : : : : = # 9 } t.F h g k j k j k k g k H j.S.S.S.S.S.",
"S.S.S.S.S.S.S.f.C g j k k k k k k j g b R %.i % = : : : : : : : : : : : : : : = & w ..u.N g j k k k k k k g j S h.S.S.S.S.S.S.S.",
"S.S.S.S.S.S.S.S.S.s.B g j k k k k k k j f b R &.p & # : : : : : : : : : : & # w O.U m g j k j k k k k g j A f.S.S.S.S.S.S.S.S.S.",
"S.S.S.S.S.S.S.S.S.S.S.p.M g j k k k k k k j g z T 5.Q > + : : : : : : # & Q &.R b g j z k k k j k j j C d.S.S.S.S.S.S.S.S.S.S.S.",
"S.S.S.S.S.S.S.S.S.S.S.S.S.p.n g j k k k k k k j g z G 6.^ > # : : # > ! 5.Y z g j k k k k k k j g B s.S.S.S.S.S.S.S.S.S.S.S.S.S.",
"S.S.S.S.S.S.S.S.S.S.S.S.S.S.S.i.n g j j k k k k k k g l F 4._ 1 , _ 4.G l g k k k k k k k j g B a.S.S.S.S.S.S.S.S.S.S.S.S.S.S.S.",
"S.S.S.S.S.S.S.S.S.S.S.S.S.S.S.S.n.E n g k k k k k k k k g h F q.q.F g j k k k k k k k j g B a.S.S.S.S.S.S.S.S.S.S.S.S.S.S.S.S.S.",
"S.S.S.S.S.S.S.S.S.S.S.S.S.S.S.S.S.S.n.U c g j k k k k k k k j g h g k k k k k k k j g B a.S.S.S.S.S.S.S.S.S.S.S.S.S.S.S.S.S.S.S.",
"S.S.S.S.S.S.S.S.S.S.S.S.S.S.S.S.S.S.S.S.b.I k g k k k k k k k k k k k k k k k j g n i.S.S.S.S.S.S.S.S.S.S.S.S.S.S.S.S.S.S.S.S.S.",
"S.S.S.S.S.S.S.S.S.S.S.S.S.S.S.S.S.S.S.S.S.S.j.H j g j k k k k k k k k k k j g c E n.S.S.S.S.S.S.S.S.S.S.S.S.S.S.S.S.S.S.S.S.S.S.",
"S.S.S.S.S.S.S.S.S.S.S.S.S.S.S.S.S.S.S.S.S.S.S.S.h.H k g k k k k k k k j g c U n.S.S.S.S.S.S.S.S.S.S.S.S.S.S.S.S.S.S.S.S.S.S.S.S.",
"S.S.S.S.S.S.S.S.S.S.S.S.S.S.S.S.S.S.S.S.S.S.S.S.S.S.g.S j g k k k j g c U b.S.S.S.S.S.S.S.S.S.S.S.S.S.S.S.S.S.S.S.S.S.S.S.S.S.S.",
"S.S.S.S.S.S.S.S.S.S.S.S.S.S.S.S.S.S.S.S.S.S.S.S.S.S.S.S.f.A j g g c I v.S.S.S.S.S.S.S.S.S.S.S.S.S.S.S.S.S.S.S.S.S.S.S.S.S.S.S.S.",
"S.S.S.S.S.S.S.S.S.S.S.S.S.S.S.S.S.S.S.S.S.S.S.S.S.S.S.S.S.S.d.C J v.S.S.S.S.S.S.S.S.S.S.S.S.S.S.S.S.S.S.S.S.S.S.S.S.S.S.S.S.S.S.",
"S.S.S.S.S.S.S.S.S.S.S.S.S.S.S.S.S.S.S.S.S.S.S.S.S.S.S.S.S.S.S.A.S.S.S.S.S.S.S.S.S.S.S.S.S.S.S.S.S.S.S.S.S.S.S.S.S.S.S.S.S.S.S.S.",
"S.S.S.S.S.S.S.S.S.S.S.S.S.S.S.S.S.S.S.S.S.S.S.S.S.S.S.S.S.S.S.S.S.S.S.S.S.S.S.S.S.S.S.S.S.S.S.S.S.S.S.S.S.S.S.S.S.S.S.S.S.S.S.S.",
"S.S.S.S.S.S.S.S.S.S.S.S.S.S.S.S.S.S.S.S.S.S.S.S.S.S.S.S.S.S.S.S.S.S.S.S.S.S.S.S.S.S.S.S.S.S.S.S.S.S.S.S.S.S.S.S.S.S.S.S.S.S.S.S.",
"S.S.S.S.S.S.S.S.S.S.S.S.S.S.S.S.S.S.S.S.S.S.S.S.S.S.S.S.S.S.S.S.S.S.S.S.S.S.S.S.S.S.S.S.S.S.S.S.S.S.S.S.S.S.S.S.S.S.S.S.S.S.S.S.",
"S.S.S.S.S.S.S.S.S.S.S.S.S.S.S.S.S.S.S.S.S.S.S.S.S.S.S.S.S.S.S.S.S.S.S.S.S.S.S.S.S.S.S.S.S.S.S.S.S.S.S.S.S.S.S.S.S.S.S.S.S.S.S.S.",
"S.S.S.S.S.S.S.S.S.S.S.S.S.S.S.S.S.S.S.S.S.S.S.S.S.S.S.S.S.S.S.S.S.S.S.S.S.S.S.S.S.S.S.S.S.S.S.S.S.S.S.S.S.S.S.S.S.S.S.S.S.S.S.S.",
"S.S.S.S.S.S.S.S.S.S.S.S.S.S.S.S.S.S.S.S.S.S.S.S.S.S.S.S.S.S.S.S.S.S.S.S.S.S.S.S.S.S.S.S.S.S.S.S.S.S.S.S.S.S.S.S.S.S.S.S.S.S.S.S.",
"S.S.S.S.S.S.S.S.S.S.S.S.S.S.S.S.S.S.S.S.S.S.S.S.S.S.S.S.S.S.S.S.S.S.S.S.S.S.S.S.S.S.S.S.S.S.S.S.S.S.S.S.S.S.S.S.S.S.S.S.S.S.S.S.",
"S.S.S.S.S.S.S.S.S.S.S.S.S.S.S.S.S.S.S.S.S.S.S.S.S.S.S.S.S.S.S.S.S.S.S.S.S.S.S.S.S.S.S.S.S.S.S.S.S.S.S.S.S.S.S.S.S.S.S.S.S.S.S.S.",
"S.S.S.S.S.S.S.S.S.S.S.S.S.S.S.S.S.S.S.S.S.S.S.S.S.S.S.S.S.S.S.S.S.S.S.S.S.S.S.S.S.S.S.S.S.S.S.S.S.S.S.S.S.S.S.S.S.S.S.S.S.S.S.S.",
"S.S.S.S.S.S.S.S.S.S.S.S.S.S.S.S.S.S.S.S.S.S.S.S.S.S.S.S.S.S.S.S.S.S.S.S.S.S.S.S.S.S.S.S.S.S.S.S.S.S.S.S.S.S.S.S.S.S.S.S.S.S.S.S."
};
