/* XPM */
static char *_587529202707[] = {
/* columns rows colors chars-per-pixel */
"32 32 119 2 ",
"   c #2C2C2E",
".  c #2F2F32",
"X  c #2D2E39",
"o  c #343436",
"O  c #3C3C3E",
"+  c #2E3244",
"@  c #313545",
"#  c #363947",
"$  c #3E3E42",
"%  c #3B3E4B",
"&  c #3F4047",
"*  c #3F4048",
"=  c #3B4153",
"-  c #434346",
";  c #464649",
":  c #4B4B4D",
">  c #424655",
",  c #464A57",
"<  c #4F4F51",
"1  c #42475A",
"2  c #464A5A",
"3  c #494E5B",
"4  c #4B505E",
"5  c #515153",
"6  c #50545C",
"7  c #5B5B5D",
"8  c #65645E",
"9  c #525561",
"0  c #555964",
"q  c #5B5E65",
"w  c #5E6167",
"e  c #616162",
"r  c #6A6960",
"t  c #676769",
"y  c #676868",
"u  c #6D6D6F",
"i  c #757262",
"p  c #74736B",
"a  c #7D7B6A",
"s  c #737374",
"d  c #7A7A7B",
"f  c #FFCD17",
"g  c #FFCA1C",
"h  c #FFD11F",
"j  c #FFCB23",
"k  c #FFCC2A",
"l  c #FFD523",
"z  c #FFD826",
"x  c #FFD72F",
"c  c #FFD92B",
"v  c #FFCF35",
"b  c #FFD531",
"n  c #FFDB34",
"m  c #FFD13C",
"M  c #FFDA3B",
"N  c #94895F",
"B  c #8C8461",
"V  c #85826D",
"C  c #8E896B",
"Z  c #968D6B",
"A  c #9B9060",
"S  c #9B926C",
"D  c #A69861",
"F  c #A2996C",
"G  c #A89D69",
"H  c #A39B78",
"J  c #ACA169",
"K  c #B8A665",
"L  c #BFAA60",
"P  c #B1A268",
"I  c #CAB35C",
"U  c #D2BB5F",
"Y  c #C4AE62",
"T  c #DDC35B",
"R  c #F1CF4F",
"E  c #FED344",
"W  c #F5D14D",
"Q  c #FED44C",
"!  c #E8C650",
"~  c #E9CA55",
"^  c #E3C559",
"/  c #ECCC5B",
"(  c #FFD654",
")  c #FFDD56",
"_  c #F6D55F",
"`  c #FFD758",
"'  c #FFDB5E",
"]  c #FFE25E",
"[  c #FFE85C",
"{  c #DDC468",
"}  c #E3C661",
"|  c #FFDB65",
" . c #FEDC6E",
".. c #FFDE75",
"X. c #FFDF7B",
"o. c #FFEA63",
"O. c #FFE068",
"+. c #FFEC6C",
"@. c #FFE07D",
"#. c #949495",
"$. c #979798",
"%. c #9A9A9B",
"&. c #A5A5A6",
"*. c #AAAAAB",
"=. c #AFAFB1",
"-. c #B8B8B9",
";. c #FFED85",
":. c #FFE389",
">. c #FFF089",
",. c #FEECB0",
"<. c #C1C1C2",
"1. c gray81",
"2. c #D5D5D6",
"3. c gray86",
"4. c gray90",
"5. c #EAEAEB",
"6. c gray96",
"7. c #FEFEFE",
"8. c None",
/* pixels */
"8.8.8.8.8.8.8.8.8.8.8.8.8.8.8.8.8.8.8.8.8.8.8.8.8.8.8.8.8.8.8.8.",
"8.8.8.8.8.8.8.8.8.8.8.8.8.8.8.8.8.8.8.8.8.8.8.8.8.8.8.8.8.8.8.8.",
"8.8.8.8.8.8.8.8.8.8.8.8.8.8.8.8.8.8.8.8.8.8.8.8.8.8.8.8.8.8.8.8.",
"8.8.8.8.8.8.8.8.8.8.8.8.8.8.8.8.8.8.8.8.8.8.8.8.8.8.8.8.8.8.8.8.",
"8.8.8.8.8.8.8.8.8.8.8.8.8.8.8.8.8.8.8.8.8.8.8.8.8.8.8.8.8.8.8.8.",
"8.8.8.8.8.8.8.8.8.8.8.8.8.8.8.;.>.8.8.8.8.8.8.8.8.8.8.8.8.8.8.8.",
"8.8.8.8.8.8.8.8.8.8.8.8.+.[ ) ~ / ' o.8.8.8.8.8.8.8.8.8.8.8.8.8.",
"8.8.8.8.8.8.8.8.8.o.] / I A r , 2 8 N L } | +.8.8.8.8.8.8.8.8.8.",
"8.8.8.8.8. .O._ U D i ; + X $ : - ; X @ , e B K { O.| 8.8.8.8.8.",
"8.8.8.:.b n S 6 > % $ $.&.$.<.5.1.5.$.d ; ; * * 1 w ! l ( 8.8.8.",
"8.8.8.Q g ^ 1 - : : ; $.4.7.7.*.%.=.7.7.=.O : : : # S c k :.8.8.",
"8.8.8.k c Z % : : : : . -.7.6.d 7 d 6.5.s O : : : ; q W f ( 8.8.",
"8.8.( g W 0 : : < : : - 2.7.6.3.3.4.6.4.*.e - : : : = Y h v 8.8.",
"8.8.k z P % : : : : O - 5.7.5.o o   s 7.7.5.: : : : $ p M g | 8.",
"8.` g E y - : : : : #.*.7.7.6.%.$.#.1.7.7.2.; : : : : , ^ g E 8.",
"8.v l Y = : : : ; 7 5.6.5.5.7.7.7.7.6.3.&.< : : : : : % Z n k 8.",
"` j x H = * : : : : ; : : < 7.-.d 7.t $ O ; : : : : * % d E g ( ",
"m j j b T V 2 * ; < : ; ; : u 7 5 u < : : : : : - > p Y m k j m ",
"8.Q k j h n ^ C 4 % ; < : : - - : - : : < : & , a U M l g k Q 8.",
"8.8.@.Q k j j c ~ S 9 * ; : : : : : : ; % 3 C U n l g k Q :.8.8.",
"8.8.8.8.@.E k j j c R F 0 % ; : : ; % 9 S ~ c l j k E :.8.8.8.8.",
"8.8.8.8.8.8...E k g j z W J w % % q G R c g j k E X.8.8.8.8.8.8.",
"8.8.8.8.8.8.8.8. .E k j j z E P K W z j j j E ..8.8.8.8.8.8.8.8.",
"8.8.8.8.8.8.8.8.8.8. .m g k k l z j j j E @.8.8.8.8.8.8.8.8.8.8.",
"8.8.8.8.8.8.8.8.8.8.8.8.| m j j j j E  .8.8.8.8.8.8.8.8.8.8.8.8.",
"8.8.8.8.8.8.8.8.8.8.8.8.8.8.| v m  .8.8.8.8.8.8.8.8.8.8.8.8.8.8.",
"8.8.8.8.8.8.8.8.8.8.8.8.8.8.8.,.8.8.8.8.8.8.8.8.8.8.8.8.8.8.8.8.",
"8.8.8.8.8.8.8.8.8.8.8.8.8.8.8.8.8.8.8.8.8.8.8.8.8.8.8.8.8.8.8.8.",
"8.8.8.8.8.8.8.8.8.8.8.8.8.8.8.8.8.8.8.8.8.8.8.8.8.8.8.8.8.8.8.8.",
"8.8.8.8.8.8.8.8.8.8.8.8.8.8.8.8.8.8.8.8.8.8.8.8.8.8.8.8.8.8.8.8.",
"8.8.8.8.8.8.8.8.8.8.8.8.8.8.8.8.8.8.8.8.8.8.8.8.8.8.8.8.8.8.8.8.",
"8.8.8.8.8.8.8.8.8.8.8.8.8.8.8.8.8.8.8.8.8.8.8.8.8.8.8.8.8.8.8.8."
};
